<svg xmlns="http://www.w3.org/2000/svg" fill="none" viewBox="0 0 24 24">{/* Bouclier */}<path
        d="M11.916.738 2.943 4.965v6.34c0 5.864 4.307 10.291 8.973 11.623 4.667-1.332 8.975-5.759 8.975-11.623v-6.34L11.916.738zM5.25 15.355v1.112c-.37-.421-.263-.863 0-1.112z"
        style="fill:#f60;stroke:#f60;stroke-width:1;stroke-miterlimit:4;stroke-dasharray:none;stroke-linejoin:round" /><path
        d="M10.707 17.019c-2.166-.793-4.056-1.71-4.518-2.193-.308-.323-.484-.707-.403-.884.05-.11.165-.136.613-.14.57-.004.992.036 2.098.204 1.155.174 1.453.207 1.936.213.88.01 1.335-.258 1.69-.996.17-.355.38-1.411.484-2.428.165-1.625.245-3.17.247-4.764.001-.92.028-1.536.078-1.767.135-.632.896-.37 1.436.493.15.24.322.864.461 1.67.419 2.423.542 5.985.307 8.86-.107 1.314-.23 1.924-.45 2.219-.114.154-.43.29-.676.29-.654 0-2.126-.346-3.303-.777z"
        style="opacity:.98999999;fill:#fff;fill-opacity:1;stroke:#fff;stroke-width:.17466547;stroke-linecap:round;stroke-linejoin:round;stroke-miterlimit:4;stroke-dasharray:none;stroke-opacity:1;paint-order:stroke fill markers" /></svg>
        